<?xml version="1.0" encoding="UTF-8"?>
<svg version="1.1" xmlns="http://www.w3.org/2000/svg" width="1001" height="1001">
<path d="M0 0 C1.06476562 0.74121094 2.12953125 1.48242188 3.2265625 2.24609375 C20.11069717 14.10690924 36.2412357 26.82863148 51.48828125 40.734375 C52.86711053 41.97810903 54.25240417 43.21525217 55.6652832 44.42016602 C61.39109145 49.32118784 66.73121377 54.57848057 72.0456543 59.9152832 C73.5599258 61.43491668 75.0794743 62.94912517 76.59960938 64.46289062 C81.94438424 69.80373767 87.0946656 75.24954006 92 81 C92.99734638 82.12215577 93.99730206 83.24199851 95 84.359375 C103.96333816 94.44702399 112.04094684 105.11011818 120 116 C120.48098145 116.65387695 120.96196289 117.30775391 121.45751953 117.98144531 C174.59281136 190.32673783 205.34479199 276.79960903 213 366 C213.09571289 367.09940918 213.19142578 368.19881836 213.29003906 369.33154297 C214.18724398 380.96144116 214.24339528 392.59076222 214.25 404.25 C214.25101212 405.86588013 214.25101212 405.86588013 214.25204468 407.5144043 C214.23296763 426.81681437 213.37421998 445.84372426 211 465 C210.91514343 465.68715088 210.83028687 466.37430176 210.74285889 467.08227539 C200.49395798 548.93070714 169.53038801 628.83763668 120 695 C119.50145508 695.66837891 119.00291016 696.33675781 118.48925781 697.02539062 C109.2788462 709.33206826 99.62622281 721.12833444 89.265625 732.48828125 C88.0274303 733.86096951 86.79567929 735.24002794 85.59741211 736.64770508 C80.56400251 742.53534273 75.14168876 748.01062258 69.6574707 753.47290039 C68.06541034 755.05959946 66.4787701 756.65157742 64.89257812 758.24414062 C59.43419308 763.70646778 53.89655583 769.00810788 48 774 C46.86996341 774.984381 45.74102725 775.9700269 44.61328125 776.95703125 C-0.65467015 816.23124582 -53.66013988 846.75839931 -110 867 C-110.98355469 867.35400879 -111.96710937 867.70801758 -112.98046875 868.07275391 C-148.90566432 880.84922116 -186.13922637 888.80373803 -224 893 C-225.03930664 893.11859375 -226.07861328 893.2371875 -227.14941406 893.359375 C-319.03309792 903.36032018 -413.71346279 884.53880432 -578.23852539 791.07177734 C-581.515856 788.40902081 -584.76466129 785.71356392 -588 783 C-588.91241455 782.23623047 -588.91241455 782.23623047 -589.84326172 781.45703125 C-602.56919818 770.76793158 -614.60819358 759.47934181 -626.375 747.75 C-626.84953613 747.2781427 -627.32407227 746.8062854 -627.81298828 746.32012939 C-633.43431778 740.72289548 -638.85766809 735.03949774 -644 729 C-644.94914809 727.91676439 -645.89961559 726.83468308 -646.8515625 725.75390625 C-654.6525597 716.81065496 -661.91790286 707.51985165 -669 698 C-669.54301758 697.27264648 -670.08603516 696.54529297 -670.64550781 695.79589844 C-683.84691723 678.0449837 -695.32080141 659.36172973 -706 640 C-706.48436523 639.12456543 -706.96873047 638.24913086 -707.46777344 637.34716797 C-739.77101929 578.49138769 -758.29049441 512.77553246 -764 446 C-764.14356934 444.36611328 -764.14356934 444.36611328 -764.29003906 442.69921875 C-765.22084228 430.72888922 -765.24349787 418.75062485 -765.25 406.75 C-765.25067474 405.62572601 -765.25134949 404.50145203 -765.25204468 403.34310913 C-765.23347287 383.75575816 -764.46050194 364.43553392 -762 345 C-761.87271515 343.99438019 -761.87271515 343.99438019 -761.74285889 342.96844482 C-749.95010363 251.31242389 -712.44867082 163.8796961 -653 93 C-652.49082031 92.39172363 -651.98164062 91.78344727 -651.45703125 91.15673828 C-640.76793158 78.43080182 -629.47934181 66.39180642 -617.75 54.625 C-617.2781427 54.15046387 -616.8062854 53.67592773 -616.32012939 53.18701172 C-610.72310479 47.56589243 -605.04232438 42.1388144 -599 37 C-597.87017828 36.01537239 -596.74124197 35.02972771 -595.61328125 34.04296875 C-529.12472413 -23.64212143 -446.46926424 -62.64248415 -350 -79 C-349.01322266 -79.15162598 -348.02644531 -79.30325195 -347.00976562 -79.45947266 C-340.3547492 -80.45772512 -333.6905607 -81.28051142 -327 -82 C-325.60080322 -82.15662109 -325.60080322 -82.15662109 -324.17333984 -82.31640625 C-225.75946325 -92.86015434 -124.59157145 -70.99544238 0 0 Z " fill="#0265C3" transform="translate(776,95)"/>
<path d="M0 0 C9.24 0 18.48 0 28 0 C29.533096 4.599288 30.69007118 8.95910668 31.5859375 13.6875 C31.72767899 14.41864014 31.86942047 15.14978027 32.01545715 15.90307617 C32.47269426 18.2679566 32.92398789 20.63392523 33.375 23 C33.69027787 24.63806573 34.00579025 26.27608635 34.3215332 27.9140625 C36.15637179 37.45799757 37.9403385 47.01020261 39.64746094 56.57788086 C40.87453093 63.42458537 42.24395326 70.238209 43.63256836 77.05371094 C44.96783358 83.67555013 46.07186211 90.30763728 47 97 C47.14695313 96.09765625 47.29390625 95.1953125 47.4453125 94.265625 C51.18161514 71.94049263 56.40107123 49.92645045 61.84033203 27.96582031 C62.21019171 26.46945806 62.57982521 24.97303989 62.94921875 23.4765625 C63.21523895 22.40051758 63.21523895 22.40051758 63.4866333 21.30273438 C64.93027722 15.40879635 66.19654434 9.48901157 67.39770508 3.54052734 C68 1 68 1 69 0 C71.14558827 -0.08775605 73.29404421 -0.10695219 75.44140625 -0.09765625 C76.74658203 -0.09443359 78.05175781 -0.09121094 79.39648438 -0.08789062 C80.7851569 -0.07953401 82.17382877 -0.07106905 83.5625 -0.0625 C84.95507656 -0.05748666 86.34765481 -0.05292347 87.74023438 -0.04882812 C91.1601987 -0.03699434 94.58007844 -0.0205088 98 0 C98.24121582 1.18102295 98.48243164 2.3620459 98.73095703 3.57885742 C99.654912 8.10210826 100.57927316 12.625276 101.5038147 17.14840698 C101.91775281 19.17356181 102.33163225 21.19872863 102.74545288 23.22390747 C105.24732402 35.46611233 107.76478724 47.70475698 110.3125 59.9375 C112.66966446 71.26828986 114.88595435 82.62146017 117 94 C117.14695312 93.02546875 117.29390625 92.0509375 117.4453125 91.046875 C119.0482508 80.77762407 121.08919665 70.63623625 123.30175781 60.48242188 C126.07145076 47.7546227 128.72413917 35.0030177 131.375 22.25 C131.83274941 20.04931344 132.2905128 17.84862979 132.74829102 15.64794922 C133.83314475 10.43216299 134.91652969 5.21607448 136 0 C145.24 0 154.48 0 164 0 C162.4375 6.25 162.4375 6.25 161.87036133 8.51196289 C160.69770924 13.19140314 159.53816471 17.87388829 158.38671875 22.55859375 C155.55711102 34.0308597 152.65396383 45.45484876 149.3359375 56.79589844 C147.10921126 64.46994319 145.10672642 72.19711537 143.125 79.9375 C142.7884185 81.24937165 142.45174842 82.56122057 142.11499023 83.87304688 C141.94700424 84.52750793 141.77901825 85.18196899 141.60594177 85.85626221 C141.43691849 86.5147113 141.2678952 87.1731604 141.09375 87.8515625 C140.92371964 88.51403992 140.75368927 89.17651733 140.57850647 89.85906982 C138.78458549 96.8452161 136.9847082 103.82967399 135.15081787 110.80545044 C134.80213038 112.13639243 134.45595122 113.46799425 134.11236572 114.80026245 C133.63604633 116.64586162 133.15028357 118.48901591 132.6640625 120.33203125 C132.39029785 121.38108643 132.1165332 122.4301416 131.83447266 123.51098633 C131 126 131 126 129 128 C112.51454771 129.58835494 112.51454771 129.58835494 106.1875 126.125 C98.4832223 119.42327615 96.62459322 108.63587892 94.5625 99.125 C94.26751012 97.80383327 93.97159375 96.4828731 93.67480469 95.16210938 C93.06757991 92.4473562 92.46903827 89.73089578 91.87744141 87.01269531 C91.04678424 83.19909324 90.18683023 79.39244661 89.32421875 75.5859375 C86.16094465 61.44912182 83.72297452 47.38020112 82 33 C81.83711739 33.92416718 81.83711739 33.92416718 81.67094421 34.86700439 C78.36770793 53.35650246 74.05198744 71.46741741 69.35626221 89.63995361 C68.62027186 92.49593323 67.89186569 95.35382437 67.16362476 98.21178818 C66.28521112 101.65757389 65.40255247 105.1022677 64.51953125 108.546875 C64.03357231 110.44515045 64.03357231 110.44515045 63.53779602 112.3817749 C63.23375351 113.55870911 62.929711 114.73564331 62.61645508 115.94824219 C62.35173904 116.97568542 62.08702301 118.00312866 61.81428528 119.06170654 C60.97760823 122.0807992 60.01600232 125.03692576 59 128 C55.83405464 128.17638838 52.66939127 128.28152076 49.5 128.375 C48.613125 128.42527344 47.72625 128.47554687 46.8125 128.52734375 C40.88006033 128.65820639 37.20553128 127.72874831 32.66625977 123.81445312 C27.56838728 118.26318743 25.91619883 111.00357654 24.0625 103.875 C23.80799072 102.92069092 23.55348145 101.96638184 23.29125977 100.9831543 C21.29069445 93.37551995 19.52405873 85.72213572 17.82446289 78.04248047 C16.515361 72.15492971 15.07201518 66.32257296 13.5 60.5 C11.44381329 52.87770787 9.66028609 45.21590148 7.95629883 37.5078125 C6.15885811 29.47202873 4.08080953 21.52113238 1.87915039 13.58691406 C1.63414795 12.68166992 1.38914551 11.77642578 1.13671875 10.84375 C0.91717529 10.05162109 0.69763184 9.25949219 0.47143555 8.44335938 C0 6 0 6 0 0 Z " fill="#FCFDFE" transform="translate(173,597)"/>
<path d="M0 0 C3.59710285 2.775665 6.34693876 6.06657043 9.12109375 9.63671875 C10.11109375 10.62671875 10.11109375 10.62671875 11.12109375 11.63671875 C11.90484375 10.60546875 12.68859375 9.57421875 13.49609375 8.51171875 C19.03188956 2.02918352 27.44767225 -2.9560733 35.9765625 -3.69921875 C46.68210141 -3.92592138 55.14705206 -3.27401422 63.43359375 4.19921875 C74.00796267 15.73489393 74.43478273 30.64642637 74.31640625 45.4921875 C74.31266613 46.88893936 74.3098239 48.28569389 74.30783081 49.68244934 C74.30027283 53.32052124 74.28069391 56.95842795 74.25842285 60.59643555 C74.23779341 64.32403287 74.22868252 68.05165823 74.21875 71.77929688 C74.19850562 79.06524902 74.1593403 86.35075033 74.12109375 93.63671875 C65.21109375 93.63671875 56.30109375 93.63671875 47.12109375 93.63671875 C47.11174805 91.77015625 47.10240234 89.90359375 47.09277344 87.98046875 C47.05714654 81.78966523 47.00328581 75.59922654 46.93719101 69.40867615 C46.89780537 65.65801328 46.86557372 61.90758205 46.85009766 58.15673828 C46.83487156 54.53191921 46.80032281 50.90773732 46.75278473 47.28320312 C46.73803176 45.90549278 46.73005625 44.52769142 46.7292099 43.14990234 C46.71842561 34.39105242 46.57429774 27.30242003 40.23828125 20.6640625 C35.80524803 18.51297812 30.90485147 19.08523998 26.12109375 19.63671875 C20.86781433 21.79431565 19.09567076 24.84615314 16.96374512 29.84420776 C15.28796947 35.39765736 15.51721088 41.10256851 15.51171875 46.859375 C15.49670962 48.21416676 15.47997681 49.56894041 15.46160889 50.9236908 C15.41822841 54.45979735 15.39800231 57.99565724 15.38287354 61.53198242 C15.36319553 65.15232759 15.32123828 68.77241041 15.28125 72.39257812 C15.20626635 79.47388237 15.15784683 86.5550977 15.12109375 93.63671875 C6.54109375 93.63671875 -2.03890625 93.63671875 -10.87890625 93.63671875 C-10.88825195 91.77015625 -10.89759766 89.90359375 -10.90722656 87.98046875 C-10.94285346 81.78966523 -10.99671419 75.59922654 -11.06280899 69.40867615 C-11.10219463 65.65801328 -11.13442628 61.90758205 -11.14990234 58.15673828 C-11.16512844 54.53191921 -11.19967719 50.90773732 -11.24721527 47.28320312 C-11.26196824 45.90549278 -11.26994375 44.52769142 -11.2707901 43.14990234 C-11.28155859 34.40389067 -11.41347769 27.28705118 -17.765625 20.671875 C-22.23459321 18.48282403 -27.06589277 18.87444829 -31.87890625 19.63671875 C-37.0520474 22.10571793 -39.2851034 25.74760237 -41.22694397 31.07043457 C-42.59472174 36.4543449 -42.36285862 42.01945056 -42.390625 47.54296875 C-42.40749843 48.8767662 -42.4256522 50.210548 -42.44502258 51.54431152 C-42.49224043 55.02940988 -42.52223097 58.5144448 -42.54846191 61.99975586 C-42.5784112 65.56637003 -42.62473374 69.13277047 -42.66992188 72.69921875 C-42.75716165 79.67840053 -42.81734613 86.65707464 -42.87890625 93.63671875 C-51.45890625 93.63671875 -60.03890625 93.63671875 -68.87890625 93.63671875 C-68.87890625 62.28671875 -68.87890625 30.93671875 -68.87890625 -1.36328125 C-60.62890625 -1.36328125 -52.37890625 -1.36328125 -43.87890625 -1.36328125 C-43.54890625 1.93671875 -43.21890625 5.23671875 -42.87890625 8.63671875 C-42.37101562 8.09402344 -41.863125 7.55132813 -41.33984375 6.9921875 C-30.87284687 -3.88643285 -13.71779779 -8.07337509 0 0 Z " fill="#FCFDFE" transform="translate(535.87890625,630.36328125)"/>
<path d="M0 0 C1.64355469 0.01244751 1.64355469 0.01244751 3.3203125 0.02514648 C15.21286104 0.2743862 24.95333811 2.55235645 33.5 11.4375 C40.85957146 21.13947271 41.79365353 30.43269009 41.87890625 42.265625 C41.89590073 43.4910199 41.9128952 44.71641479 41.93040466 45.97894287 C41.98330753 49.88174329 42.02368733 53.78453612 42.0625 57.6875 C42.10669441 61.57612543 42.15367221 65.46467655 42.20530701 69.35321045 C42.23679051 71.76627989 42.26381825 74.17941326 42.28553772 76.59259033 C42.37416523 83.91449988 42.78958029 91.14951936 43.5 98.4375 C37.58732992 99.65857496 32.20986468 100.3046567 26.375 98.4375 C22.39469164 95.66858984 19.5214989 92.20096461 16.5 88.4375 C16.03851563 88.89640625 15.57703125 89.3553125 15.1015625 89.828125 C6.69907439 97.73244188 -0.96936986 100.03387075 -12.31225586 99.83569336 C-21.55854441 99.45768424 -27.69467683 97.32528939 -34.48046875 90.7890625 C-40.67680127 83.57399059 -42.30317854 76.11411949 -41.9140625 66.734375 C-40.73863182 57.37528542 -35.55719507 50.86777006 -28.609375 44.78125 C-18.35783793 37.1121612 -4.0916561 34.24583344 8.4375 34.375 C9.58089844 34.38402344 10.72429687 34.39304687 11.90234375 34.40234375 C12.75957031 34.41394531 13.61679687 34.42554688 14.5 34.4375 C13.62793428 28.08225347 13.62793428 28.08225347 10.0625 22.9375 C2.65010925 18.59853956 -8.17102344 19.51579056 -16.37109375 21.26171875 C-20.94148948 22.65721983 -25.2691114 24.20648511 -29.5 26.4375 C-31.60396411 20.50432122 -33.25971762 14.60972879 -34.5 8.4375 C-33.09266179 7.64976423 -31.67324589 6.88361691 -30.25 6.125 C-29.46109375 5.69574219 -28.6721875 5.26648438 -27.859375 4.82421875 C-18.75003831 1.0639693 -9.79503495 -0.0959853 0 0 Z " fill="#FBFDFE" transform="translate(370.5,626.5625)"/>
<path d="M0 0 C1.15951172 -0.02449219 2.31902344 -0.04898438 3.51367188 -0.07421875 C14.56971928 -0.11150727 24.62510095 2.43636585 32.6875 10.375 C40.55589874 19.69189941 42.12843363 29.78065657 42.1640625 41.671875 C42.17964203 42.82310852 42.19522156 43.97434204 42.21127319 45.16046143 C42.25845377 48.81530071 42.28640634 52.46995488 42.3125 56.125 C42.36108513 60.93237104 42.41747811 65.73962252 42.4765625 70.546875 C42.4958078 72.25538635 42.4958078 72.25538635 42.51544189 73.99841309 C42.61945495 81.82370491 42.9263004 89.58219646 43.6875 97.375 C38.30728602 99.60516933 33.35009979 100.70099014 27.69140625 98.65234375 C23.10590977 96.21660691 19.99632339 92.99264679 17.6875 88.375 C16.90439453 89.06335938 16.90439453 89.06335938 16.10546875 89.765625 C6.35724102 97.89199348 -2.86395488 100.27534952 -15.34375 99.7578125 C-20.42847078 99.26735715 -24.08839131 98.21488703 -28.3125 95.375 C-28.93253906 94.98570312 -29.55257812 94.59640625 -30.19140625 94.1953125 C-35.91931446 90.0138158 -39.05308542 83.98498946 -41.3125 77.375 C-42.65322274 68.57238593 -40.80031789 61.06357987 -36.6875 53.3125 C-26.62577799 40.86773857 -13.90565181 36.40468712 1.6875 34.375 C6.0370103 34.17166923 10.33850042 34.17698484 14.6875 34.375 C13.81543428 28.01975347 13.81543428 28.01975347 10.25 22.875 C3.0048078 18.63391188 -8.4023038 19.00141784 -16.44287109 20.87011719 C-20.20302657 22.0734425 -23.7343274 23.72444262 -27.3125 25.375 C-27.9725 25.375 -28.6325 25.375 -29.3125 25.375 C-29.60253906 24.48748047 -29.60253906 24.48748047 -29.8984375 23.58203125 C-30.28902344 22.39673828 -30.28902344 22.39673828 -30.6875 21.1875 C-30.95820312 20.36507812 -31.22890625 19.54265625 -31.5078125 18.6953125 C-32.31433704 16.2643918 -32.31433704 16.2643918 -33.5625 13.5625 C-34.47711782 10.89486468 -34.44828295 9.94911071 -33.3125 7.375 C-30.87109375 5.9609375 -30.87109375 5.9609375 -27.75 4.75 C-26.23212891 4.14285156 -26.23212891 4.14285156 -24.68359375 3.5234375 C-16.24044722 0.64709326 -8.90623946 0.00980324 0 0 Z " fill="#FCFDFE" transform="translate(659.3125,626.625)"/>
<path d="M0 0 C4.20964571 2.91123493 8.24756915 6.0229052 12.26171875 9.1953125 C16.05961011 12.17359165 19.9922693 14.94151829 23.94921875 17.703125 C30.31042359 22.15851433 36.62225548 26.67504203 42.88671875 31.265625 C43.65967285 31.82797852 44.43262695 32.39033203 45.22900391 32.96972656 C62.12895282 45.40229344 62.12895282 45.40229344 63.16796875 52.203125 C63.50519808 57.73368599 62.69554867 61.73866567 59.4296875 66.2578125 C55.55723171 70.34697506 51.07567791 72.14341998 45.48046875 72.44921875 C38.0026991 72.32160473 31.60616796 68.69480002 25.01171875 65.515625 C23.63047843 64.86683924 22.24822287 64.22021075 20.86499023 63.57568359 C18.79066839 62.60905536 16.71695185 61.6413892 14.6464386 60.66662598 C8.95346443 57.98928213 3.19149285 55.50328683 -2.61328125 53.078125 C-8.8553511 50.4352887 -15.02792814 47.69095624 -21.11328125 44.703125 C-21.74613037 44.39777832 -22.37897949 44.09243164 -23.03100586 43.77783203 C-30.16563846 40.19355389 -34.66678141 36.10108764 -38.17578125 28.953125 C-40.11234414 22.71739251 -40.29694783 15.53521622 -37.48828125 9.578125 C-34.13422322 3.81149891 -28.82881946 -1.57176289 -22.33984375 -3.62890625 C-13.94338965 -5.25060406 -7.308275 -4.46211369 0 0 Z " fill="#FCC121" transform="translate(402.17578125,295.046875)"/>
<path d="M0 0 C6.11683358 3.81507292 11.00856788 9.1581061 12.87890625 16.171875 C13.91010089 24.43315023 12.93358142 31.38920623 7.87890625 38.171875 C3.71948818 42.09086428 -0.54344683 44.62182319 -5.74609375 46.984375 C-6.52807129 47.34764893 -7.31004883 47.71092285 -8.11572266 48.08520508 C-18.73512226 52.97945688 -29.44323029 57.68719713 -40.13916016 62.41137695 C-41.26306908 62.90815948 -41.26306908 62.90815948 -42.40968323 63.41497803 C-43.88856064 64.0683526 -45.36783375 64.72083231 -46.84751892 65.37237549 C-50.22263596 66.86373796 -53.58149708 68.37728288 -56.90991211 69.97045898 C-58.04823486 70.51387939 -59.18655762 71.0572998 -60.359375 71.6171875 C-61.33946533 72.09559082 -62.31955566 72.57399414 -63.3293457 73.06689453 C-68.76456746 75.21816814 -74.04369972 75.42732928 -79.4765625 73.2109375 C-84.24392701 70.48424815 -86.84873685 67.52627048 -88.80859375 62.359375 C-89.77773541 55.57538339 -89.46393997 51.87719531 -85.7265625 46.18798828 C-82.97452715 42.73204122 -79.57366404 40.43412032 -75.93359375 37.984375 C-74.31482836 36.85586427 -72.69634665 35.72694654 -71.078125 34.59765625 C-70.25393066 34.02998535 -69.42973633 33.46231445 -68.58056641 32.87744141 C-64.71907454 30.19961907 -60.92257148 27.43388617 -57.12109375 24.671875 C-55.63575221 23.59849385 -54.15007338 22.52557931 -52.6640625 21.453125 C-49.52047169 19.18279185 -46.37730597 16.91187152 -43.234375 14.640625 C-42.43064453 14.05990234 -41.62691406 13.47917969 -40.79882812 12.88085938 C-39.27267569 11.77814808 -37.7466264 10.67529401 -36.22070312 9.57226562 C-34.84056598 8.57514527 -33.45926523 7.579633 -32.07666016 6.5859375 C-30.78574121 5.65247901 -29.50135872 4.70990521 -28.22412109 3.7578125 C-19.86222823 -2.41379227 -9.84594967 -4.35770633 0 0 Z " fill="#FDC121" transform="translate(625.12109375,292.828125)"/>
<path d="M0 0 C5.37072055 3.56877945 6.56202602 8.16828914 7.79296875 14.19140625 C8.21102364 16.9339593 8.49605319 19.67998873 8.7578125 22.44140625 C8.83574539 23.209048 8.91367828 23.97668976 8.99397278 24.76759338 C9.24452605 27.24171923 9.48749968 29.71652526 9.73046875 32.19140625 C10.07446004 35.61756443 10.42302713 39.0432428 10.7734375 42.46875 C10.85921051 43.31018051 10.94498352 44.15161102 11.03335571 45.01853943 C11.7482049 51.94736807 12.61938211 58.84991232 13.54296875 65.75390625 C16.44736602 88.16658338 16.44736602 88.16658338 11.79296875 96.19140625 C11.31730469 97.08085938 11.31730469 97.08085938 10.83203125 97.98828125 C7.50183517 103.51498964 2.91546794 106.34816047 -3.20703125 108.19140625 C-10.82004828 109.25308549 -17.75386177 109.12701518 -24.3046875 104.80859375 C-29.64402341 100.26961004 -33.0059201 95.15785092 -34.20703125 88.19140625 C-34.66610274 79.85571403 -33.66995552 71.58821798 -32.78125 63.3125 C-32.63132767 61.89105464 -32.48157608 60.46959127 -32.33198547 59.04811096 C-32.01875096 56.08513003 -31.70126117 53.12264085 -31.38110352 50.16040039 C-30.97394943 46.38709986 -30.58091273 42.61247547 -30.1914854 38.83730984 C-29.88698883 35.90669006 -29.57322809 32.97711476 -29.25693703 30.04774666 C-29.10822023 28.65719652 -28.96269392 27.2663009 -28.82059288 25.87505913 C-26.78992347 6.09870456 -26.78992347 6.09870456 -21.33203125 1.25390625 C-14.02111089 -3.57130119 -7.77869136 -4.31815169 0 0 Z " fill="#FCC121" transform="translate(510.20703125,426.80859375)"/>
<path d="M0 0 C1.00732178 0.50990479 2.01464355 1.01980957 3.05249023 1.54516602 C5.31903744 2.6436952 7.58737781 3.73852974 9.85717773 4.83032227 C10.45979935 5.12294449 11.06242096 5.41556671 11.68330383 5.71705627 C16.7414051 8.16244511 21.85669014 10.46376623 26.99780273 12.72875977 C27.7991011 13.08185211 28.60039948 13.43494446 29.42597961 13.79873657 C32.62709646 15.20685886 35.82958108 16.61181627 39.03366089 18.01318359 C63.51286601 28.73240599 63.51286601 28.73240599 69.98999023 39.92016602 C71.72302977 47.19893205 71.18330568 54.90977007 67.61499023 61.54516602 C63.3834296 67.10942505 58.60363385 71.28126238 51.61499023 72.54516602 C40.90026237 73.62902577 34.23859813 70.31230571 25.80249023 64.17016602 C24.70215454 63.38113892 24.70215454 63.38113892 23.57958984 62.57617188 C21.25334149 60.90560808 18.93396136 59.22581238 16.61499023 57.54516602 C15.12315308 56.47046077 13.63096958 55.39623612 12.13842773 54.32250977 C8.39581195 51.62731826 4.65972863 48.923214 0.92504883 46.21704102 C-1.46124463 44.48999202 -3.85043946 42.76702725 -6.24047852 41.04516602 C-7.0391333 40.46951904 -7.83778809 39.89387207 -8.66064453 39.30078125 C-10.17248588 38.21124371 -11.68466581 37.12217573 -13.19726562 36.03369141 C-14.57932703 35.03691835 -15.95935647 34.03732076 -17.3371582 33.03466797 C-18.75211144 32.00550372 -20.17240073 30.98365023 -21.59692383 29.96777344 C-22.30816406 29.45190674 -23.0194043 28.93604004 -23.75219727 28.40454102 C-24.39012207 27.94660156 -25.02804687 27.48866211 -25.68530273 27.0168457 C-29.32470179 23.86569697 -30.93822013 19.97485063 -31.79516602 15.31469727 C-32.1427839 10.13608213 -30.93504894 6.48303406 -27.92016602 2.27563477 C-20.25942061 -6.35976018 -9.5469184 -4.60120643 0 0 Z " fill="#FDC121" transform="translate(567.385009765625,397.454833984375)"/>
<path d="M0 0 C6.81461367 2.96242038 10.55606833 7.82635178 14.10546875 14.23046875 C17.09241839 23.19131766 14.65355545 34.05275097 13.64453125 43.2421875 C13.49203332 44.66457969 13.33988972 46.08700992 13.18807983 47.50947571 C12.87070699 50.4706891 12.54918897 53.43141384 12.22460938 56.3918457 C11.81107557 60.16657816 11.4078967 63.94233213 11.00779152 67.71850872 C10.69617647 70.64877461 10.37913895 73.57843473 10.06049728 76.50794411 C9.90977006 77.8994875 9.76066891 79.29120811 9.61330032 80.68311119 C7.43403069 101.18317623 7.43403069 101.18317623 1.10546875 107.23046875 C-3.7045094 109.95309789 -8.39965443 111.33991055 -13.89453125 110.23046875 C-19.38509223 107.89022965 -23.31798368 104.68085784 -25.89453125 99.23046875 C-27.5958766 91.38837777 -28.38832027 83.38048189 -29.1484375 75.40234375 C-29.25421616 74.32849426 -29.35999481 73.25464478 -29.46897888 72.14825439 C-29.80213292 68.75935175 -30.1298359 65.36995139 -30.45703125 61.98046875 C-30.78885362 58.57681588 -31.12183236 55.17327992 -31.45579529 51.76983643 C-31.66207373 49.66414544 -31.86695786 47.55831722 -32.07020569 45.45233154 C-32.59760722 40.03192776 -33.20163457 34.63211114 -33.89453125 29.23046875 C-34.64643733 20.83060369 -34.03685244 14.16088723 -28.89453125 7.23046875 C-26.4164728 4.86527236 -23.84369447 2.96596043 -20.89453125 1.23046875 C-20.28996094 0.85792969 -19.68539063 0.48539063 -19.0625 0.1015625 C-13.27998694 -2.22186167 -5.91435856 -1.57237333 0 0 Z " fill="#FCC121" transform="translate(509.89453125,226.76953125)"/>
<path d="M0 0 C4.28956041 2.44374957 6.595966 5.71666216 8.375 10.3125 C9.09004829 16.21164842 9.00289212 20.35934201 5.625 25.375 C-0.55017266 31.87443972 -8.06290655 36.84581176 -15.37255859 41.96386719 C-18.97999606 44.50605062 -22.55021983 47.09970528 -26.125 49.6875 C-27.25107666 50.49997192 -27.25107666 50.49997192 -28.39990234 51.32885742 C-32.34657209 54.1771813 -36.28339037 57.03799259 -40.20703125 59.91796875 C-40.99948242 60.49699951 -41.79193359 61.07603027 -42.60839844 61.67260742 C-44.10820703 62.76885116 -45.60518889 63.86897814 -47.09863281 64.97387695 C-56.12958766 71.55956276 -62.88607093 75.81502926 -74.375 74.375 C-80.91695498 72.86365727 -85.56570401 69.80462604 -89.5625 64.4375 C-93.66794628 57.50071146 -94.55191038 51.06175182 -92.91015625 43.12890625 C-90.36307074 35.39722064 -85.85642563 30.88816735 -78.6875 27.1875 C-75.93731442 25.86960804 -73.15914511 24.61930128 -70.375 23.375 C-69.44461914 22.95621582 -68.51423828 22.53743164 -67.55566406 22.10595703 C-61.97551836 19.59905047 -56.3832182 17.12178686 -50.78125 14.6640625 C-46.33014451 12.7039099 -41.90458708 10.70353973 -37.50230408 8.63626099 C-34.90560759 7.41722581 -32.30275314 6.21163527 -29.69973755 5.00616455 C-28.45704859 4.42594429 -27.21740867 3.83914117 -25.98117065 3.24530029 C-17.13273967 -1.00089433 -9.45683869 -3.96914431 0 0 Z " fill="#FDC121" transform="translate(456.375,395.625)"/>
<path d="M0 0 C8.58 0 17.16 0 26 0 C26 9.9 26 19.8 26 30 C33.26 30 40.52 30 48 30 C48 38.25 48 46.5 48 55 C40.74 55 33.48 55 26 55 C26.07409786 61.01470255 26.15701759 67.02794489 26.26245117 73.04199219 C26.29564141 75.0865108 26.32369163 77.13111974 26.34643555 79.17578125 C26.38008993 82.12018206 26.43241166 85.06375954 26.48828125 88.0078125 C26.49467117 88.9174173 26.5010611 89.82702209 26.50764465 90.76419067 C26.6488139 96.90072552 27.4792564 101.4792564 32 106 C34.75321475 106.14551875 37.37763422 106.18622113 40.125 106.125 C42.72375 106.08375 45.3225 106.0425 48 106 C48 112.93 48 119.86 48 127 C41.8963103 128.74391134 37.75068324 129.33696359 31.625 129.3125 C30.82578125 129.32861328 30.0265625 129.34472656 29.203125 129.36132812 C20.99752347 129.36796696 13.59474092 127.51699031 7.5 121.7890625 C0.36462347 113.27863945 -0.31103896 101.20453265 -0.22705078 90.59326172 C-0.22734283 89.60669083 -0.22763489 88.62011993 -0.22793579 87.60365295 C-0.22655487 84.37890481 -0.21105247 81.15439472 -0.1953125 77.9296875 C-0.19157796 75.6795362 -0.18873307 73.42938325 -0.18673706 71.17922974 C-0.17913531 65.2839705 -0.15951676 59.38881129 -0.1373291 53.49359131 C-0.1167959 47.46709546 -0.10771941 41.44058331 -0.09765625 35.4140625 C-0.0762674 23.6093242 -0.04111368 11.8046861 0 0 Z " fill="#FBFCFD" transform="translate(780,597)"/>
<path d="M0 0 C8.58 0 17.16 0 26 0 C26 41.91 26 83.82 26 127 C17.42 127 8.84 127 0 127 C0 85.09 0 43.18 0 0 Z " fill="#FCFDFE" transform="translate(426,597)"/>
<path d="M0 0 C0 8.25 0 16.5 0 25 C-3.465 25.0928125 -3.465 25.0928125 -7 25.1875 C-13.4082917 25.52401634 -18.25813668 26.47868846 -23 31 C-29.56883469 38.60601912 -29.31064657 48.46359232 -29.4140625 58.03515625 C-29.43342865 59.15442001 -29.4527948 60.27368378 -29.4727478 61.42686462 C-29.53212223 64.97200095 -29.57875971 68.5171705 -29.625 72.0625 C-29.66321857 74.47852912 -29.70227252 76.89454518 -29.7421875 79.31054688 C-29.83934776 85.20696002 -29.91925169 91.10324832 -30 97 C-38.58 97 -47.16 97 -56 97 C-56 65.65 -56 34.3 -56 2 C-48.41 2 -40.82 2 -33 2 C-32.505 9.92 -32.505 9.92 -32 18 C-31.360625 16.659375 -30.72125 15.31875 -30.0625 13.9375 C-26.55872392 7.62672149 -21.54943699 3.81415668 -15.1875 0.5625 C-10.19861502 -0.31789147 -5.06597103 0 0 0 Z " fill="#FDFEFE" transform="translate(770,627)"/>
<path d="M0 0 C0.79566905 16.97427298 0.79566905 16.97427298 -4 23 C-8.52813429 27.41202828 -12.69119414 29.09152198 -18.9375 29.4375 C-22.56513763 29.37252739 -24.71394151 28.97185126 -27.5625 26.6875 C-31.15646943 22.72491832 -31.34796345 19.41375293 -31.28125 14.28515625 C-30.84050167 10.70407611 -29.35179501 8.66960515 -27 6 C-19.05758551 0.14769459 -9.48803863 -0.16942926 0 0 Z " fill="#0462C0" transform="translate(676,678)"/>
<path d="M0 0 C0.10887507 2.68860931 0.18770594 5.37273158 0.25 8.0625 C0.30027344 9.19075195 0.30027344 9.19075195 0.3515625 10.34179688 C0.45089885 16.07847085 -0.68607543 19.29387013 -4 24 C-9.43549212 28.2152796 -13.73874479 29.39882313 -20.484375 29.359375 C-24.56639574 28.77622918 -26.2315481 26.98140974 -29 24 C-30.97488914 20.05022173 -30.43058351 15.30583508 -30 11 C-27.03881856 5.20101968 -20.92685095 2.97561698 -15 1 C-13.00382251 0.77543003 -11.00280958 0.59212868 -9 0.4375 C-7.948125 0.35371094 -6.89625 0.26992188 -5.8125 0.18359375 C-3.87815067 0.05732372 -1.93846626 0 0 0 Z " fill="#0269C6" transform="translate(386,678)"/>
<path d="M0 0 C1.32 0 2.64 0 4 0 C2.4375 6.25 2.4375 6.25 1.90966797 8.35473633 C0.72406502 13.08662501 -0.44894057 17.82142562 -1.61328125 22.55859375 C-4.46650154 34.12654995 -7.39527547 45.64669285 -10.73657227 57.08374023 C-12.72824011 63.93986233 -14.54017259 70.83419084 -16.3125 77.75 C-18.88953128 87.79411509 -21.54233801 97.81520047 -24.26498413 107.82067871 C-24.67023167 109.30997202 -25.07471719 110.79947289 -25.47842407 112.28918457 C-26.0431938 114.37181499 -26.61092003 116.45361454 -27.1796875 118.53515625 C-27.50694824 119.735354 -27.83420898 120.93555176 -28.17138672 122.17211914 C-29 125 -29 125 -30 127 C-38.14757653 129.71585884 -47.36238788 128.66605382 -55 125 C-54.505 124.01 -54.505 124.01 -54 123 C-53.34 123.33 -52.68 123.66 -52 124 C-50.62451844 124.08308638 -49.24514204 124.10736016 -47.8671875 124.09765625 C-47.06152344 124.09443359 -46.25585938 124.09121094 -45.42578125 124.08789062 C-44.58402344 124.07951172 -43.74226563 124.07113281 -42.875 124.0625 C-41.60076172 124.05573242 -41.60076172 124.05573242 -40.30078125 124.04882812 C-38.20049091 124.03702874 -36.1002367 124.01909306 -34 124 C-31.64289146 117.1693401 -29.66232055 110.29612231 -27.8125 103.3125 C-27.51206787 102.18674561 -27.21163574 101.06099121 -26.90209961 99.90112305 C-26.26108478 97.49818321 -25.62122098 95.09493607 -24.98242188 92.69140625 C-24.008666 89.03256211 -23.02865722 85.37544784 -22.046875 81.71875 C-18.76238086 69.46865003 -15.52854545 57.20833262 -12.38308716 44.92196655 C-9.3069353 32.90725534 -6.08970825 20.94802174 -2.59863281 9.046875 C-1.71787901 6.03535793 -0.85880098 3.01784271 0 0 Z " fill="#276DAC" transform="translate(336,600)"/>
<path d="M0 0 C0.33 0.99 0.66 1.98 1 3 C1.66 3 2.32 3 3 3 C3 44.91 3 86.82 3 130 C-5.58 130 -14.16 130 -23 130 C-23 129.34 -23 128.68 -23 128 C-23.99 127.67 -24.98 127.34 -26 127 C-17.42 127 -8.84 127 0 127 C0 85.09 0 43.18 0 0 Z " fill="#2F70AD" transform="translate(452,597)"/>
<path d="M0 0 C0.99 0 1.98 0 3 0 C3 8.25 3 16.5 3 25 C0.855 25.0825 -1.29 25.165 -3.5 25.25 C-10.93674748 25.79085436 -15.75969871 27.11000155 -21.3125 32.0625 C-25.95455849 40.14312034 -26.45667551 49.10999071 -26.51171875 58.23046875 C-26.52966995 59.34690262 -26.54762115 60.46333649 -26.56611633 61.61360168 C-26.61978771 65.13819737 -26.65397604 68.66266106 -26.6875 72.1875 C-26.72071118 74.59441924 -26.75520428 77.00132116 -26.79101562 79.40820312 C-26.87787395 85.27214989 -26.93831341 91.13551985 -27 97 C-35.58 97 -44.16 97 -53 97 C-53 96.34 -53 95.68 -53 95 C-53.99 94.67 -54.98 94.34 -56 94 C-47.42 94 -38.84 94 -30 94 C-30.03480469 90.44605469 -30.06960938 86.89210938 -30.10546875 83.23046875 C-30.12891739 79.75855308 -30.14710376 76.2866465 -30.16479492 72.81469727 C-30.17980862 70.41621908 -30.20022579 68.01776801 -30.22631836 65.61938477 C-30.26302904 62.15634436 -30.27980116 58.6936694 -30.29296875 55.23046875 C-30.30845261 54.17168015 -30.32393646 53.11289154 -30.33988953 52.02201843 C-30.34198511 42.5867242 -29.26235679 33.68611405 -22.79296875 26.4375 C-17.81566966 22.4469857 -13.35554352 21.5789063 -7.125 21.8125 C-4.77375 21.874375 -2.4225 21.93625 0 22 C0 14.74 0 7.48 0 0 Z " fill="#326EAA" transform="translate(770,630)"/>
<path d="M0 0 C0.66 0.33 1.32 0.66 2 1 C2.47618812 3.87182587 2.84167597 6.67120147 3.125 9.5625 C3.21136719 10.36880859 3.29773438 11.17511719 3.38671875 12.00585938 C3.59943628 14.00304064 3.80077855 16.00142737 4 18 C3.01 18.33 2.02 18.66 1 19 C0.1233171 21.14244294 0.1233171 21.14244294 -0.37255859 23.81835938 C-0.59940338 24.84650757 -0.82624817 25.87465576 -1.05996704 26.93395996 C-1.29541229 28.05919067 -1.53085754 29.18442139 -1.7734375 30.34375 C-2.29911307 32.7346706 -2.82617592 35.12528652 -3.35449219 37.515625 C-3.62483276 38.75441406 -3.89517334 39.99320313 -4.17370605 41.26953125 C-6.23361838 50.56941613 -8.51580732 59.81825567 -10.78710938 69.06835938 C-11.35580805 71.39750523 -11.91775886 73.72830702 -12.47363281 76.06054688 C-13.29237693 79.49228403 -14.13203491 82.91828 -14.9765625 86.34375 C-15.22145416 87.38930054 -15.46634583 88.43485107 -15.71865845 89.51208496 C-15.95925995 90.46909302 -16.19986145 91.42610107 -16.44775391 92.41210938 C-16.65171783 93.25302124 -16.85568176 94.09393311 -17.06582642 94.96032715 C-18 97 -18 97 -19.86264038 98.2701416 C-23.19325594 99.40746904 -26.52332157 99.28778998 -30 99.25 C-31.06734375 99.26160156 -31.06734375 99.26160156 -32.15625 99.2734375 C-35.92429832 99.25937762 -38.80489203 99.09678961 -42 97 C-42 96.67 -42 96.34 -42 96 C-32.1 95.505 -32.1 95.505 -22 95 C-19.98033651 86.96696041 -17.9628173 78.93339091 -15.94882584 70.89892769 C-15.01305672 67.16618365 -14.07643526 63.43365828 -13.13769531 59.70166016 C-5.44202337 30.08287917 -5.44202337 30.08287917 0 0 Z " fill="#246DAD" transform="translate(254,629)"/>
<path d="M0 0 C2.359375 2.04296875 2.359375 2.04296875 4 4 C3.20335937 3.95359375 2.40671875 3.9071875 1.5859375 3.859375 C-5.1028093 3.62406353 -5.1028093 3.62406353 -11.4375 5.5 C-18.01319462 11.91531182 -19.57340899 17.16680574 -19.71894836 26.35925293 C-19.71501572 27.67413696 -19.71108307 28.989021 -19.70703125 30.34375 C-19.7201665 31.72239346 -19.73547631 33.10101774 -19.75285339 34.47961426 C-19.79250427 38.08323432 -19.80288075 41.68634871 -19.80688477 45.29016113 C-19.81625422 48.97744901 -19.8536912 52.6644444 -19.88867188 56.3515625 C-19.95304472 63.56776301 -19.98385217 70.78350091 -20 78 C-28.58 78 -37.16 78 -46 78 C-46 77.34 -46 76.68 -46 76 C-46.99 75.67 -47.98 75.34 -49 75 C-40.42 75 -31.84 75 -23 75 C-23.03480469 70.7615625 -23.06960938 66.523125 -23.10546875 62.15625 C-23.12478511 58.75964624 -23.14104518 55.36305817 -23.15525055 51.96643066 C-23.17103977 48.39026725 -23.19211116 44.81431995 -23.22631836 41.23828125 C-23.25910534 37.78881207 -23.27689332 34.33955143 -23.28463173 30.88993835 C-23.29280731 28.94466264 -23.31619545 26.99946988 -23.33988953 25.05432129 C-23.34135062 17.3124547 -22.94094079 11.19526975 -18.37890625 4.6875 C-12.90280763 -0.39997227 -7.36373051 -1.71469725 0 0 Z " fill="#2B6DAB" transform="translate(516,649)"/>
<path d="M0 0 C2.36328125 2.03515625 2.36328125 2.03515625 4 4 C2.69675781 3.93039062 2.69675781 3.93039062 1.3671875 3.859375 C-5.75975441 3.61496417 -5.75975441 3.61496417 -12.5625 5.4375 C-19.60682818 12.84307578 -19.60005971 21.45844087 -19.609375 31.22265625 C-19.62438413 32.57744801 -19.64111694 33.93222166 -19.65948486 35.28697205 C-19.70286534 38.8230786 -19.72309144 42.35893849 -19.73822021 45.89526367 C-19.75789822 49.51560884 -19.79985547 53.13569166 -19.83984375 56.75585938 C-19.9148274 63.83716362 -19.96324692 70.91837895 -20 78 C-28.58 78 -37.16 78 -46 78 C-46 77.34 -46 76.68 -46 76 C-46.99 75.67 -47.98 75.34 -49 75 C-40.42 75 -31.84 75 -23 75 C-23.02094727 73.19926025 -23.04189453 71.39852051 -23.06347656 69.54321289 C-23.12822442 63.56421328 -23.17405035 57.58531376 -23.20724869 51.60607243 C-23.22803981 47.98416963 -23.25619947 44.36264945 -23.30175781 40.7409668 C-23.34552219 37.239606 -23.36920069 33.73861102 -23.37950897 30.2369976 C-23.3903937 28.26457008 -23.42157019 26.29228778 -23.45318604 24.32008362 C-23.45513783 16.43481493 -22.94411021 9.39987178 -17.47735596 3.30140686 C-12.73376092 -1.0779181 -6.08724006 -1.24492216 0 0 Z " fill="#3572AE" transform="translate(574,649)"/>
<path d="M0 0 C0.66 0 1.32 0 2 0 C6.72095758 7.77271944 8.44992278 14.22577059 6.5234375 23.2265625 C4.01911364 31.04125986 -0.60551256 35.53168908 -7.8125 39.25 C-10.52068853 40.54825914 -13.25597898 41.77954212 -16 43 C-16.86560547 43.38639648 -17.73121094 43.77279297 -18.62304688 44.17089844 C-23.74426833 46.44876402 -28.87696885 48.69927879 -34.015625 50.9375 C-38.9995465 53.11313489 -43.96563727 55.32479999 -48.921875 57.5625 C-49.58118515 57.85986053 -50.2404953 58.15722107 -50.91978455 58.46359253 C-53.52501095 59.63906068 -56.13002124 60.81494709 -58.73220825 61.99713135 C-60.53502654 62.81603625 -62.33974204 63.63076052 -64.14453125 64.4453125 C-65.17940674 64.91469238 -66.21428223 65.38407227 -67.28051758 65.86767578 C-71.16250589 67.48403827 -74.43042075 68.15242827 -78.625 68.1875 C-79.40101563 68.20167969 -80.17703125 68.21585937 -80.9765625 68.23046875 C-83 68 -83 68 -85 66 C-84.11513916 65.97981812 -84.11513916 65.97981812 -83.21240234 65.95922852 C-75.79773415 65.53588468 -70.22784777 63.19780994 -63.625 59.9375 C-61.34914427 58.84844743 -59.07170269 57.76270479 -56.79296875 56.6796875 C-55.88439873 56.24539177 -55.88439873 56.24539177 -54.95747375 55.80232239 C-49.88118653 53.38645698 -44.75708611 51.08840535 -39.61328125 48.8203125 C-38.81222961 48.46697342 -38.01117798 48.11363434 -37.18585205 47.74958801 C-33.98594359 46.34017346 -30.78495083 44.9332913 -27.581604 43.53170776 C-12.15049773 37.90256848 -12.15049773 37.90256848 -0.5 27.375 C-0.0359375 26.61960937 0.428125 25.86421875 0.90625 25.0859375 C4.0008604 19.18407337 3.9985147 11.81409394 2.328125 5.43359375 C1.62939544 3.59118892 0.82573376 1.7890898 0 0 Z " fill="#185994" transform="translate(634,301)"/>
<path d="M0 0 C3 1 3 1 4.1875 3 C5.64498373 8.38147839 5.94469442 13.03188663 3.5 18.125 C-2.9598922 25.55387603 -10.9801778 30.94692554 -18.98144531 36.57275391 C-22.59095891 39.12490878 -26.16879913 41.72084658 -29.75 44.3125 C-30.49918701 44.85334229 -31.24837402 45.39418457 -32.02026367 45.95141602 C-35.98851246 48.81674058 -39.94975343 51.69123407 -43.90234375 54.578125 C-44.70381836 55.16166748 -45.50529297 55.74520996 -46.33105469 56.34643555 C-47.85597856 57.45695045 -49.37890425 58.57021661 -50.89941406 59.68676758 C-58.19689703 64.99287777 -64.24544086 69.12393847 -73.5 69.1875 C-74.4384375 69.20167969 -75.376875 69.21585937 -76.34375 69.23046875 C-79.05994337 68.99479903 -80.67915046 68.38484654 -83 67 C-79.69812119 65.3490606 -76.05823408 66.20802578 -72.43359375 66.453125 C-64.5043177 65.40671314 -57.84703903 59.649537 -51.5625 55 C-49.98056669 53.843616 -48.39853258 52.68736989 -46.81640625 51.53125 C-45.61781982 50.65146484 -45.61781982 50.65146484 -44.39501953 49.75390625 C-41.3494006 47.52355697 -38.28964436 45.3132544 -35.22729492 43.10595703 C-33.74309791 42.03579941 -32.26018445 40.96385936 -30.77856445 39.89013672 C-26.89742295 37.07852759 -23.00115533 34.29198489 -19.078125 31.5390625 C-18.26988281 30.96736328 -17.46164062 30.39566406 -16.62890625 29.80664062 C-15.09507438 28.72238016 -13.55633965 27.64500641 -12.01171875 26.57617188 C-6.57377153 22.71552979 -1.16634219 18.49902658 1 12 C1.1544533 7.82976082 0.98388771 4.05853682 0 0 Z " fill="#195C95" transform="translate(463,403)"/>
<path d="M0 0 C3 1 3 1 4.16796875 2.57421875 C8.36829545 11.28064306 7.72205162 20.14448773 6.05078125 29.46459961 C4.98140932 35.78896144 4.36703325 42.09431417 3.8515625 48.484375 C3.64912846 50.82427863 3.44598251 53.16412076 3.2421875 55.50390625 C2.93009246 59.13927193 2.62298809 62.7748146 2.328125 66.41162109 C2.03818513 69.95813893 1.72770939 73.50238558 1.4140625 77.046875 C1.33161285 78.12725037 1.24916321 79.20762573 1.16421509 80.32073975 C0.47613702 87.85240706 -0.80657566 93.96624688 -6.5 99.375 C-7.325 99.91125 -8.15 100.4475 -9 101 C-9.598125 101.4125 -10.19625 101.825 -10.8125 102.25 C-14.30992572 103.44911739 -17.30509561 103.2345971 -21 103 C-21.99 102.34 -22.98 101.68 -24 101 C-23.34773438 100.90203125 -22.69546875 100.8040625 -22.0234375 100.703125 C-15.64635519 99.61206077 -10.61439102 98.33252276 -6.43481445 93.00488281 C-4.37588539 88.69293812 -4.00903217 84.4516098 -3.48046875 79.734375 C-3.35834518 78.72356873 -3.23622162 77.71276245 -3.11039734 76.67132568 C-2.72608618 73.4490185 -2.36078084 70.22502063 -2 67 C-1.88271545 65.96979736 -1.76543091 64.93959473 -1.64459229 63.87817383 C-0.94503596 57.7089699 -0.27966796 51.53675211 0.36254883 45.36132812 C0.69178868 42.20893697 1.03034815 39.0576272 1.36914062 35.90625 C1.58389578 33.85943393 1.79810878 31.8125609 2.01171875 29.765625 C2.11167648 28.84460999 2.21163422 27.92359497 2.31462097 26.97467041 C3.95036792 14.00955089 3.95036792 14.00955089 0 2 C0 1.34 0 0.68 0 0 Z " fill="#175A96" transform="translate(521,236)"/>
<path d="M0 0 C0.66 0 1.32 0 2 0 C6.30518965 7.11499754 6.99487518 13.73089933 7.703125 21.9296875 C7.83076709 23.28771759 7.95959559 24.64563663 8.08953857 26.00344849 C8.35809065 28.84523487 8.61586565 31.68771729 8.86523438 34.53125 C9.18038183 38.120967 9.51673907 41.70828072 9.86026859 45.29537964 C13.9863246 88.52211811 13.9863246 88.52211811 8.703125 96.234375 C4.41876851 100.67595559 -1.20834484 104.92158272 -7.4765625 105.09765625 C-8.85940867 105.09100795 -10.24223728 105.07908295 -11.625 105.0625 C-12.33140625 105.05798828 -13.0378125 105.05347656 -13.765625 105.04882812 C-15.51045275 105.03703875 -17.255237 105.01910324 -19 105 C-19 104.34 -19 103.68 -19 103 C-18.32195312 102.98582031 -17.64390625 102.97164062 -16.9453125 102.95703125 C-9.78033192 102.5898508 -3.84275846 101.34121039 2 97 C9.07738186 88.93005848 9.67092455 81.40631933 9 71 C8.55095569 66.51423445 7.94896833 62.04873869 7.35083008 57.58081055 C6.45621375 50.83341996 5.67318704 44.08307502 4.98046875 37.3125 C4.89397064 36.46928696 4.80747253 35.62607391 4.71835327 34.75730896 C4.37088554 31.35533911 4.02539601 27.95322064 3.6895752 24.55007935 C2.48922531 12.1721959 2.48922531 12.1721959 0 0 Z " fill="#1C5C93" transform="translate(515,432)"/>
<path d="M0 0 C8.4186455 10.02219703 8.29027509 22.69864407 8.1953125 35.09765625 C8.19157506 36.54210716 8.18873155 37.98656064 8.18673706 39.43101501 C8.17915806 43.20392042 8.15956 46.976668 8.1373291 50.74951172 C8.11674601 54.6109809 8.10770889 58.47247597 8.09765625 62.33398438 C8.07630771 69.88940267 8.04117352 77.44465897 8 85 C-0.58 85 -9.16 85 -18 85 C-18 84.34 -18 83.68 -18 83 C-18.99 82.67 -19.98 82.34 -21 82 C-12.42 82 -3.84 82 5 82 C4.93664732 74.02736331 4.86087678 66.0551242 4.76428509 58.08283043 C4.71988989 54.37946191 4.68056975 50.67619564 4.65356445 46.97265625 C4.62721857 43.38680277 4.58660665 39.80134958 4.53681374 36.21574783 C4.51243884 34.20775774 4.50218211 32.19961178 4.49235535 30.1914978 C4.35516806 21.45708946 3.06610544 13.47373547 1 5 C0.65778529 3.33513425 0.32104356 1.66907757 0 0 Z " fill="#2065A7" transform="translate(605,642)"/>
<path d="M0 0 C3.71790682 2.70393223 4.25647885 6.71627117 5 11 C5.29756433 14.59920871 5.34751748 18.18658399 5.37890625 21.796875 C5.39590073 22.82572815 5.4128952 23.8545813 5.43040466 24.91461182 C5.48320266 28.19301257 5.52356702 31.47140785 5.5625 34.75 C5.62150681 39.03653844 5.68602514 43.32296832 5.75390625 47.609375 C5.77778915 49.17117493 5.77778915 49.17117493 5.80215454 50.76452637 C5.97042156 60.52305895 6.43184353 70.25744649 7 80 C-0.85330575 81.62034301 -6.77268799 81.6905423 -14 78 C-13.505 77.01 -13.505 77.01 -13 76 C-12.01 76.33 -11.02 76.66 -10 77 C-7.60509014 77.06970052 -5.20832309 77.08448003 -2.8125 77.0625 C-1.54019531 77.05347656 -0.26789063 77.04445313 1.04296875 77.03515625 C2.01878906 77.02355469 2.99460937 77.01195312 4 77 C3.8600209 76.28873962 3.72004181 75.57747925 3.57582092 74.84466553 C2.14761083 67.05950948 1.67843778 59.54469824 1.62109375 51.640625 C1.60409927 50.4114032 1.5871048 49.1821814 1.56959534 47.91571045 C1.51694133 44.02719114 1.47638196 40.13867937 1.4375 36.25 C1.39338435 32.34709046 1.34657181 28.44425713 1.29469299 24.54144287 C1.26305475 22.1240622 1.23606973 19.70661468 1.21446228 17.28912354 C1.14285556 11.44030557 0.8766111 5.78519166 0 0 Z " fill="#3171AD" transform="translate(410,648)"/>
<path d="M0 0 C0.99 0 1.98 0 3 0 C3 8.25 3 16.5 3 25 C-4.59 25 -12.18 25 -20 25 C-19.88000376 30.8900284 -19.75730658 36.77987141 -19.62768555 42.66967773 C-19.58442261 44.67257358 -19.54274153 46.67550425 -19.50268555 48.6784668 C-19.44477338 51.56049079 -19.38113953 54.44234088 -19.31640625 57.32421875 C-19.29969376 58.21711105 -19.28298126 59.11000336 -19.26576233 60.029953 C-19.16841511 64.13217633 -19.01395876 67.99829088 -18 72 C-21.49692753 69.66871498 -21.90559647 68.97231549 -23 65 C-23.26156648 61.6988819 -23.23265977 58.41511064 -23.1953125 55.10546875 C-23.1924826 54.15811356 -23.18965271 53.21075836 -23.18673706 52.23469543 C-23.17557187 49.21883334 -23.15047389 46.20327184 -23.125 43.1875 C-23.11496547 41.13867617 -23.10584045 39.08984768 -23.09765625 37.04101562 C-23.07734892 32.02713571 -23.03819308 27.01390302 -23 22 C-15.41 22 -7.82 22 0 22 C0 14.74 0 7.48 0 0 Z " fill="#1C5EA2" transform="translate(829,630)"/>
<path d="M0 0 C0.66 0 1.32 0 2 0 C2.65489373 1.37070781 3.29844963 2.74683444 3.9375 4.125 C4.47697266 5.27355469 4.47697266 5.27355469 5.02734375 6.4453125 C6.84085479 11.20851018 7.12457001 15.94693331 7.11352539 21.00537109 C7.11344986 22.16612152 7.11337433 23.32687195 7.11329651 24.52279663 C7.10813522 25.76050812 7.10297394 26.9982196 7.09765625 28.2734375 C7.0962413 29.55231842 7.09482635 30.83119934 7.09336853 32.14883423 C7.08873022 35.53211336 7.07976081 38.91532386 7.06866455 42.29858398 C7.05839515 45.75764374 7.05385911 49.21671061 7.04882812 52.67578125 C7.03781609 59.45053966 7.02109064 66.22526587 7 73 C6.34 73 5.68 73 5 73 C3.98410088 66.24483127 3.83413912 59.61735098 3.7890625 52.79296875 C3.76099577 50.40819624 3.73233132 48.0234307 3.703125 45.63867188 C3.66192762 41.91300644 3.6249998 38.18747152 3.59863281 34.46166992 C3.57085881 30.84266973 3.52499588 27.22424386 3.4765625 23.60546875 C3.47330963 22.50615524 3.47005676 21.40684174 3.46670532 20.2742157 C3.3540559 13.10399408 2.22118663 6.81847587 0 0 Z " fill="#3D75AE" transform="translate(697,645)"/>
<path d="M0 0 C0 4.95 0 9.9 0 15 C-0.33 15 -0.66 15 -1 15 C-1 11.37 -1 7.74 -1 4 C-14.71692518 4.95420737 -14.71692518 4.95420737 -25.9375 12.125 C-27.49253253 16.33273509 -27.74906489 20.54373856 -28 25 C-30 24 -30 24 -31 21 C-31.54508569 16.30868877 -31.44834676 12.89669352 -29.3125 8.625 C-21.83043106 0.13184067 -10.58449032 -0.18900876 0 0 Z " fill="#306FAC" transform="translate(676,678)"/>
<path d="M0 0 C2.56666706 0.99215701 3.79100535 1.6645765 5.265625 4.03125 C8.38184926 11.8465426 9.57445947 18.67535245 6.4375 26.6875 C3.48130171 32.54803345 -0.67322754 37.26023345 -6.75 39.9375 C-11.723346 41.54306839 -16.83616636 41.25629321 -22 41 C-22 40.34 -22 39.68 -22 39 C-21.20335937 38.90203125 -20.40671875 38.8040625 -19.5859375 38.703125 C-10.53876926 37.42639566 -5.05615283 35.00819146 0.7421875 27.84375 C4.4843582 22.35833208 4.83744189 15.42687962 4 9 C2.92667644 5.84536205 1.58449561 2.92848742 0 0 Z " fill="#185894" transform="translate(633,431)"/>
<path d="M0 0 C0.99 0.99 1.98 1.98 3 3 C1.53426802 6.78306242 -0.33402498 8.1328299 -3.8125 10.125 C-4.66457031 10.62257813 -5.51664063 11.12015625 -6.39453125 11.6328125 C-12.09096105 14.62194358 -16.38213557 15.35522411 -22.75 15.3125 C-23.55115234 15.31048584 -24.35230469 15.30847168 -25.17773438 15.30639648 C-31.82700006 15.19345635 -36.99790271 14.00104864 -43 11 C-42.67 10.34 -42.34 9.68 -42 9 C-41.17886719 9.32226562 -40.35773437 9.64453125 -39.51171875 9.9765625 C-29.31939771 12.94696084 -17.37710367 11.92614737 -8 7 C-3.26392517 4.24974243 -3.26392517 4.24974243 0 0 Z " fill="#2869A8" transform="translate(676,714)"/>
<path d="M0 0 C0.99 0 1.98 0 3 0 C3 6.93 3 13.86 3 21 C-3.57572659 22.64393165 -8.37600338 23.36500534 -14.9375 23.375 C-15.77990234 23.39949219 -16.62230469 23.42398438 -17.49023438 23.44921875 C-23.80691418 23.4783951 -28.44536071 21.96415369 -34 19 C-33.67 18.34 -33.34 17.68 -33 17 C-32.0409375 17.32613281 -31.081875 17.65226563 -30.09375 17.98828125 C-25.55272187 19.28229153 -21.19169435 19.25791247 -16.5 19.1875 C-15.27603516 19.1865332 -15.27603516 19.1865332 -14.02734375 19.18554688 C-9.17414635 19.15049168 -4.88678664 18.69811238 0 18 C0 12.06 0 6.12 0 0 Z " fill="#2263A5" transform="translate(828,706)"/>
<path d="M0 0 C0 1.32 0 2.64 0 4 C-0.90621094 4.09796875 -1.81242187 4.1959375 -2.74609375 4.296875 C-13.41434128 5.49625015 -13.41434128 5.49625015 -23 10 C-26.3733556 14.53294659 -26.64622661 19.51041298 -27 25 C-29.23698779 23.23177092 -29.94273342 22.33328116 -30.43359375 19.4765625 C-30.44401435 11.86952809 -30.44401435 11.86952809 -28.5 8.0625 C-22.70509626 3.28170442 -16.44472417 1.0122765 -9 0.4375 C-7.948125 0.35371094 -6.89625 0.26992188 -5.8125 0.18359375 C-3.87815067 0.05732372 -1.93846626 0 0 0 Z " fill="#236BAB" transform="translate(386,678)"/>
<path d="M0 0 C0.66 0.66 1.32 1.32 2 2 C1.79548033 4.59582652 1.26176388 5.7330139 -0.56640625 7.59765625 C-10.49734256 14.88552536 -19.88171372 16.3984847 -32 15 C-35.86714697 14.01617737 -39.41048427 12.73661236 -43 11 C-42.67 10.34 -42.34 9.68 -42 9 C-41.01644531 9.32226562 -40.03289062 9.64453125 -39.01953125 9.9765625 C-30.00982746 12.53523686 -18.65337596 12.39084072 -10.16015625 8.35546875 C-6.38941296 5.98937848 -3.1498306 3.13223378 0 0 Z " fill="#276CAB" transform="translate(387,714)"/>
<path d="M0 0 C0.99 0.33 1.98 0.66 3 1 C3.11069824 1.62455078 3.22139648 2.24910156 3.33544922 2.89257812 C3.84576425 5.76223728 4.36035265 8.63111478 4.875 11.5 C5.04902344 12.48226562 5.22304687 13.46453125 5.40234375 14.4765625 C6.26763209 19.28371992 7.22935335 24.00539803 8.45996094 28.73486328 C9.7562652 34.17207438 10.6891642 39.68954242 11.6875 45.1875 C11.92533203 46.44498047 12.16316406 47.70246094 12.40820312 48.99804688 C12.62798828 50.20912109 12.84777344 51.42019531 13.07421875 52.66796875 C13.27619873 53.76391357 13.47817871 54.8598584 13.6862793 55.98901367 C13.99546492 58.95647377 13.75997914 61.13336532 13 64 C10.88693887 60.39691581 10.17746589 56.63062387 9.4140625 52.578125 C9.27213974 51.84871704 9.13021698 51.11930908 8.98399353 50.36779785 C8.52473294 47.9963557 8.07452052 45.62330608 7.625 43.25 C7.31258429 41.62268954 7.00000215 39.99541102 6.68725586 38.36816406 C4.24936632 25.61290112 2.01350099 12.82959065 0 0 Z " fill="#2770AF" transform="translate(202,601)"/>
<path d="M0 0 C0.33 0 0.66 0 1 0 C1.33 19.8 1.66 39.6 2 60 C-4.34547234 62.53818894 -9.66196279 63.23937799 -16.0625 60.5 C-17.031875 60.005 -18.00125 59.51 -19 59 C-18.67 58.34 -18.34 57.68 -18 57 C-17.01 57.33 -16.02 57.66 -15 58 C-13.52313889 58.09247381 -12.04224499 58.12999071 -10.5625 58.125 C-9.80066406 58.12757813 -9.03882813 58.13015625 -8.25390625 58.1328125 C-6.04684141 58.00276015 -4.12030724 57.60856199 -2 57 C-2 55.02 -2 53.04 -2 51 C-1.34 51 -0.68 51 0 51 C0 34.17 0 17.34 0 0 Z " fill="#1861A9" transform="translate(704,667)"/>
<path d="M0 0 C1.24330078 -0.02416992 1.24330078 -0.02416992 2.51171875 -0.04882812 C7.6129463 -0.05288315 11.03836436 0.56743522 15.5 3.3125 C12.74575231 4.68962384 10.28865492 4.25853974 7.27709961 4.14624023 C-3.57689913 3.78657242 -11.74205425 5.43352713 -21.5 10.3125 C-21.5 9.3225 -21.5 8.3325 -21.5 7.3125 C-22.49 6.9825 -23.48 6.6525 -24.5 6.3125 C-23.12667716 5.68382332 -21.75124167 5.05976109 -20.375 4.4375 C-19.60929688 4.08945312 -18.84359375 3.74140625 -18.0546875 3.3828125 C-11.8058393 0.76479353 -6.71806563 -0.02612001 0 0 Z " fill="#2366A7" transform="translate(654.5,645.6875)"/>
<path d="M0 0 C3 1 3 1 4.1875 3 C5.76980526 8.84235788 5.99731776 13.90319926 3 19.3125 C0.07888488 23.41188005 -3.14238003 25.67443186 -8 27 C-11.37939998 27.3859344 -14.63347575 27.53814328 -18 27 C-18.66 26.34 -19.32 25.68 -20 25 C-19.19175781 24.89042969 -18.38351562 24.78085937 -17.55078125 24.66796875 C-16.48214844 24.50941406 -15.41351563 24.35085938 -14.3125 24.1875 C-13.25675781 24.03667969 -12.20101563 23.88585937 -11.11328125 23.73046875 C-6.25310012 22.59012512 -3.69016644 20.9140042 -0.6875 16.9375 C1.66774281 12.48343195 1.52440656 7.91738613 1 3 C0.67 2.01 0.34 1.02 0 0 Z " fill="#135A99" transform="translate(463,342)"/>
<path d="M0 0 C0.73798828 -0.020625 1.47597656 -0.04125 2.23632812 -0.0625 C7.10449026 -0.09711804 10.28720372 0.67533663 14.5625 3.25 C13.5725 3.58 12.5825 3.91 11.5625 4.25 C10.9025 3.92 10.2425 3.59 9.5625 3.25 C-1.03445888 2.35253768 -11.09306735 4.08597143 -20.4375 9.25 C-21.0975 9.25 -21.7575 9.25 -22.4375 9.25 C-22.7675 7.93 -23.0975 6.61 -23.4375 5.25 C-21.87729133 4.59865075 -20.31421421 3.95417036 -18.75 3.3125 C-17.87988281 2.95285156 -17.00976562 2.59320312 -16.11328125 2.22265625 C-10.73454028 0.26746428 -5.66356231 0.03936446 0 0 Z " fill="#2269A9" transform="translate(366.4375,645.75)"/>
<path d="M0 0 C0.66 0 1.32 0 2 0 C4.20675534 8.32294018 6.24533299 16.6555697 7.8125 25.125 C7.94825439 25.82230225 8.08400879 26.51960449 8.22387695 27.23803711 C8.96706354 31.42916365 8.94978999 34.85193761 8 39 C7.67 39 7.34 39 7 39 C6.15870498 34.8933591 5.32275045 30.78567575 4.49145508 26.67700195 C4.20869524 25.28315848 3.92454785 23.88959566 3.63891602 22.49633789 C2.10715572 15.01995268 0.66588152 7.6112786 0 0 Z " fill="#276FB0" transform="translate(279,636)"/>
<path d="M0 0 C0.99 0.33 1.98 0.66 3 1 C3.90722656 3.68041992 3.90722656 3.68041992 4.640625 7.23046875 C4.90617187 8.50857422 5.17171875 9.78667969 5.4453125 11.10351562 C5.57711914 11.77423096 5.70892578 12.44494629 5.84472656 13.13598633 C6.2457072 15.16576962 6.67184514 17.18902063 7.1015625 19.21289062 C9.30801227 30.09767875 9.30801227 30.09767875 8 36 C7.67 36 7.34 36 7 36 C6.00057578 31.19501746 5.00372523 26.38951102 4.00927734 21.58349609 C3.67047031 19.94793194 3.33095501 18.31251434 2.99072266 16.67724609 C2.50237628 14.32948173 2.01656256 11.98120561 1.53125 9.6328125 C1.30157532 8.53273361 1.30157532 8.53273361 1.06726074 7.41043091 C0 2.22774341 0 2.22774341 0 0 Z " fill="#2B71B0" transform="translate(271,600)"/>
<path d="M0 0 C0.99 0 1.98 0 3 0 C3 8.25 3 16.5 3 25 C-0.63 25 -4.26 25 -8 25 C-8 24.67 -8 24.34 -8 24 C-4.535 23.505 -4.535 23.505 -1 23 C-0.67 15.41 -0.34 7.82 0 0 Z " fill="#1A5DA2" transform="translate(770,630)"/>
<path d="M0 0 C0.33 0 0.66 0 1 0 C1.33 6.6 1.66 13.2 2 20 C-5.97291359 21.59458272 -11.70022032 21.72754707 -19 18 C-18.67 17.34 -18.34 16.68 -18 16 C-17.01 16.33 -16.02 16.66 -15 17 C-10.33032246 17.13590447 -5.67262015 17.04286807 -1 17 C-0.67 11.39 -0.34 5.78 0 0 Z " fill="#1A65AA" transform="translate(415,708)"/>
<path d="M0 0 C0.99 0 1.98 0 3 0 C3 8.91 3 17.82 3 27 C2.01 27 1.02 27 0 27 C0 18.09 0 9.18 0 0 Z " fill="#1C5DA0" transform="translate(806,600)"/>
<path d="M0 0 C0.99 0 1.98 0 3 0 C3.50881977 2.6652464 4.00720141 5.33178419 4.5 8 C4.64308594 8.74378906 4.78617188 9.48757813 4.93359375 10.25390625 C5.84632568 15.25220015 6.13856719 19.91920316 6 25 C5.34 25.33 4.68 25.66 4 26 C3.52018352 22.9792686 3.04112768 19.95841979 2.5625 16.9375 C2.42779297 16.08994141 2.29308594 15.24238281 2.15429688 14.36914062 C1.39685603 9.58433139 0.67051707 4.79777748 0 0 Z " fill="#397BB5" transform="translate(215,669)"/>
<path d="M0 0 C0.33 0.66 0.66 1.32 1 2 C1.66 2 2.32 2 3 2 C4.91384609 5.50871784 5.04276246 6.81367786 4.125 10.8125 C3.75375 11.864375 3.3825 12.91625 3 14 C1.20724134 10.88089144 0.65709282 8.32317572 0.375 4.75 C0.30023438 3.85796875 0.22546875 2.9659375 0.1484375 2.046875 C0.09945313 1.37140625 0.05046875 0.6959375 0 0 Z " fill="#3D7EB8" transform="translate(287,678)"/>
<path d="M0 0 C0.66 0 1.32 0 2 0 C4.75402489 5.42198649 6.74818558 9.7651202 6 16 C5.34 16.99 4.68 17.98 4 19 C3.69255859 17.31970703 3.69255859 17.31970703 3.37890625 15.60546875 C3.10688311 14.13279176 2.83474151 12.66013664 2.5625 11.1875 C2.36043945 10.08051758 2.36043945 10.08051758 2.15429688 8.95117188 C1.58580263 5.88684924 0.98690349 2.96071047 0 0 Z " fill="#2567A8" transform="translate(697,645)"/>
<path d="M0 0 C3.15111212 2.52952288 3.58798017 4.76756266 4.1875 8.6875 C4.42533203 10.17830078 4.42533203 10.17830078 4.66796875 11.69921875 C4.77753906 12.45847656 4.88710938 13.21773437 5 14 C4.01 14 3.02 14 2 14 C-0.29612756 4.58997722 -0.29612756 4.58997722 0 0 Z " fill="#256AAB" transform="translate(410,648)"/>
<path d="M0 0 C0.99 0.33 1.98 0.66 3 1 C3.33 4.3 3.66 7.6 4 11 C3.01 11.495 3.01 11.495 2 12 C0.86235649 7.73383684 0 4.43513689 0 0 Z " fill="#397AB4" transform="translate(212,653)"/>
<path d="M0 0 C0.99 0.33 1.98 0.66 3 1 C3.33 4.63 3.66 8.26 4 12 C3.34 11.67 2.68 11.34 2 11 C1.3671875 8.49609375 1.3671875 8.49609375 0.875 5.4375 C0.70742187 4.42558594 0.53984375 3.41367187 0.3671875 2.37109375 C0.24601563 1.58863281 0.12484375 0.80617188 0 0 Z " fill="#226CAD" transform="translate(202,601)"/>
<path d="M0 0 C0.99 0.33 1.98 0.66 3 1 C3.22174933 2.45635371 3.42698698 3.91522956 3.625 5.375 C3.74101562 6.18710937 3.85703125 6.99921875 3.9765625 7.8359375 C3.98429687 8.55007813 3.99203125 9.26421875 4 10 C3.34 10.66 2.68 11.32 2 12 C1.34 8.04 0.68 4.08 0 0 Z " fill="#3879B2" transform="translate(284,663)"/>
<path d="M0 0 C0 0.66 0 1.32 0 2 C-3.63 2 -7.26 2 -11 2 C-11 1.34 -11 0.68 -11 0 C-3.375 -1.125 -3.375 -1.125 0 0 Z " fill="#215D90" transform="translate(622,470)"/>
<path d="M0 0 C0 0.66 0 1.32 0 2 C-1.62463842 2.05395478 -3.24978541 2.09277195 -4.875 2.125 C-5.77992188 2.14820313 -6.68484375 2.17140625 -7.6171875 2.1953125 C-10 2 -10 2 -12 0 C-10.56359829 -0.19573608 -9.12580496 -0.38127816 -7.6875 -0.5625 C-6.88699219 -0.66691406 -6.08648437 -0.77132813 -5.26171875 -0.87890625 C-3 -1 -3 -1 0 0 Z " fill="#1D5E94" transform="translate(455,367)"/>
<path d="M0 0 C0.99 0 1.98 0 3 0 C3.1875 2.8125 3.1875 2.8125 3 6 C2.01 6.99 1.02 7.98 0 9 C0 6.03 0 3.06 0 0 Z " fill="#2167A9" transform="translate(492,632)"/>
<path d="M0 0 C0.66 0.33 1.32 0.66 2 1 C2 2.98 2 4.96 2 7 C1.34 7 0.68 7 0 7 C-0.33 7.66 -0.66 8.32 -1 9 C-0.67 6.03 -0.34 3.06 0 0 Z " fill="#719FC8" transform="translate(254,629)"/>
</svg>
